<svg width="18" height="18" viewBox="0 0 18 18" fill="none" xmlns="http://www.w3.org/2000/svg">
<path d="M13.7651 3.21362C13.1821 3.21362 12.7095 3.68624 12.7095 4.26874C12.7095 4.85175 13.1821 5.32436 13.7651 5.32436C14.3476 5.32436 14.8202 4.85175 14.8202 4.26874C14.8202 3.68624 14.3476 3.21362 13.7651 3.21362Z" fill="white"/>
<path d="M9.07323 11.8392C7.50735 11.8392 6.23347 10.5654 6.23347 8.99999C6.23347 7.43411 7.50735 6.16025 9.07323 6.16025C10.6386 6.16025 11.9125 7.43411 11.9125 8.99999C11.9125 10.5654 10.6386 11.8392 9.07323 11.8392ZM9.07323 4.56689C6.62877 4.56689 4.64014 6.55553 4.64014 8.99999C4.64014 11.4439 6.62877 13.4326 9.07323 13.4326C11.5172 13.4326 13.5058 11.4439 13.5058 8.99999C13.5058 6.55553 11.5172 4.56689 9.07323 4.56689Z" fill="white"/>
<path d="M5.40632 1.69357C3.35866 1.69357 1.69307 3.35917 1.69307 5.40682V12.5932C1.69307 14.6408 3.35866 16.3064 5.40632 16.3064H12.5927C14.6403 16.3064 16.3064 14.6408 16.3064 12.5932V5.40682C16.3064 3.35917 14.6403 1.69357 12.5927 1.69357H5.40632ZM12.5927 18H5.40632C2.42463 18 0 15.5744 0 12.5932V5.40682C0 2.42513 2.42463 0 5.40632 0H12.5927C15.5738 0 17.9995 2.42513 17.9995 5.40682V12.5932C17.9995 15.5744 15.5738 18 12.5927 18Z" fill="white"/>
</svg>
